<svg viewBox="0 0 14.823 15" fill="none" xmlns="http://www.w3.org/2000/svg">
  <path d="M11.0722 1.5L8.2522 0.795C8.13324 0.765187 8.01108 0.750074 7.88845 0.75H4.87495C4.59633 0.750009 4.32322 0.82762 4.08623 0.974131C3.84924 1.12064 3.65774 1.33026 3.5332 1.5795L0.908199 6.8295C0.793924 7.05819 0.739993 7.31229 0.751528 7.56768C0.763062 7.82307 0.839679 8.07127 0.974105 8.28873C1.10853 8.50618 1.2963 8.68567 1.5196 8.81016C1.74289 8.93464 1.9943 8.99999 2.24995 9H5.82295H7.32295M11.0722 1.5L11.0729 8.25L8.52895 12.066C8.2312 12.5122 8.07295 13.0358 8.07295 13.572C8.07295 13.9463 7.7692 14.25 7.3942 14.25H7.3222C6.92437 14.25 6.54284 14.092 6.26154 13.8107C5.98023 13.5294 5.8222 13.1478 5.8222 12.75V9M11.0722 1.5H12.5729C12.9708 1.5 13.3523 1.65804 13.6336 1.93934C13.9149 2.22064 14.073 2.60218 14.073 3V7.5C14.073 7.89782 13.9149 8.27936 13.6336 8.56066C13.3523 8.84196 12.9708 9 12.5729 9H10.6979" stroke="#272727" stroke-width="1.5" stroke-linecap="round" stroke-linejoin="round"/>
</svg>
