<svg viewBox="0 0 14.823 15" fill="none" xmlns="http://www.w3.org/2000/svg">
  <path d="M9 6H12.573C12.8287 6.00001 13.0801 6.06536 13.3034 6.18984C13.5266 6.31433 13.7144 6.49382 13.8488 6.71127C13.9833 6.92873 14.0599 7.17693 14.0714 7.43232C14.083 7.68771 14.029 7.94181 13.9147 8.1705L11.2897 13.4205C11.1651 13.6698 10.9735 13.8795 10.7364 14.0261C10.4993 14.1726 10.226 14.2501 9.94725 14.25H6.9345C6.81225 14.25 6.69 14.235 6.57075 14.205L3.75 13.5M9 6V2.25C9 1.85218 8.84196 1.47064 8.56066 1.18934C8.27936 0.908035 7.89782 0.75 7.5 0.75H7.42875C7.05375 0.75 6.75 1.05375 6.75 1.42875C6.75 1.96425 6.59175 2.48775 6.294 2.93325L3.75 6.75V13.5M9 6H7.5M3.75 13.5H2.25C1.85218 13.5 1.47064 13.342 1.18934 13.0607C0.908035 12.7794 0.75 12.3978 0.75 12V7.5C0.75 7.10218 0.908035 6.72064 1.18934 6.43934C1.47064 6.15804 1.85218 6 2.25 6H4.125" stroke="#272727" stroke-width="1.5" stroke-linecap="round" stroke-linejoin="round"/>
</svg>
